<svg xmlns="http://www.w3.org/2000/svg" viewBox="0 0 120 120" fill="none">
  <defs>
    <linearGradient id="bg" x1="10" y1="8" x2="108" y2="116" gradientUnits="userSpaceOnUse">
      <stop stop-color="#123A66"/><stop offset=".52" stop-color="#0B2447"/><stop offset="1" stop-color="#131B42"/>
    </linearGradient>
    <linearGradient id="suit" x1="38" y1="70" x2="88" y2="112" gradientUnits="userSpaceOnUse">
      <stop stop-color="#1EA7C5"/><stop offset="1" stop-color="#2563EB"/>
    </linearGradient>
    <pattern id="grid" width="12" height="12" patternUnits="userSpaceOnUse">
      <path d="M12 0H0V12" stroke="#7DD3FC" stroke-opacity=".08"/>
    </pattern>
    <filter id="glow"><feGaussianBlur stdDeviation="3"/></filter>
  </defs>
  <rect width="120" height="120" rx="28" fill="url(#bg)"/>
  <rect width="120" height="120" rx="28" fill="url(#grid)"/>
  <circle cx="60" cy="50" r="36" stroke="#67E8F9" stroke-opacity=".16"/>
  <circle cx="94" cy="22" r="5" fill="#22D3EE" fill-opacity=".55" filter="url(#glow)"/>
  <path d="M25 111c2-22 16-34 35-34s33 12 35 34H25Z" fill="url(#suit)" stroke="#A5F3FC" stroke-opacity=".28"/>
  <path d="m47 78 13 15 13-15 5 3-7 30H49l-7-30 5-3Z" fill="#E0F2FE" fill-opacity=".92"/>
  <path d="m55 88 5 5 5-5-2 23h-6l-2-23Z" fill="#0E7490"/>
  <rect x="40" y="27" width="40" height="49" rx="19" fill="#D9A783"/>
  <path d="M39 46c0-18 9-27 23-27 12 0 21 8 21 24-8-5-14-11-18-17-5 9-13 15-26 20Z" fill="#07182E"/>
  <rect x="43" y="49" width="15" height="9" rx="4.5" fill="#07182E" stroke="#67E8F9" stroke-width="1.5"/>
  <rect x="63" y="49" width="15" height="9" rx="4.5" fill="#07182E" stroke="#67E8F9" stroke-width="1.5"/>
  <path d="M58 53.5h5M52 65c5 4 11 4 16 0" stroke="#6B3A2A" stroke-width="2" stroke-linecap="round"/>
  <path d="M16 28h10m-5-5v10M94 55h10m-5-5v10" stroke="#67E8F9" stroke-opacity=".65" stroke-linecap="round"/>
  <path d="m17 73 6-6m-6 6 6 6M103 73l-6-6m6 6-6 6" stroke="#7DD3FC" stroke-width="2" stroke-linecap="round" stroke-linejoin="round"/>
</svg>
