<svg xmlns="http://www.w3.org/2000/svg" viewBox="0 0 120 120" fill="none">
  <defs>
    <linearGradient id="bg" x1="9" y1="7" x2="111" y2="116" gradientUnits="userSpaceOnUse">
      <stop stop-color="#3B286B"/><stop offset=".5" stop-color="#251C53"/><stop offset="1" stop-color="#132846"/>
    </linearGradient>
    <linearGradient id="coat" x1="34" y1="75" x2="91" y2="112" gradientUnits="userSpaceOnUse">
      <stop stop-color="#C084FC"/><stop offset="1" stop-color="#6366F1"/>
    </linearGradient>
    <radialGradient id="halo"><stop stop-color="#E9D5FF" stop-opacity=".32"/><stop offset="1" stop-color="#A855F7" stop-opacity="0"/></radialGradient>
  </defs>
  <rect width="120" height="120" rx="28" fill="url(#bg)"/>
  <circle cx="60" cy="50" r="46" fill="url(#halo)"/>
  <path d="M20 31 31 20m-4 19 16-16M91 23l8 8-8 8-8-8 8-8Z" stroke="#E9D5FF" stroke-opacity=".46" stroke-width="1.5"/>
  <path d="M24 111c3-23 17-35 36-35s34 12 37 35H24Z" fill="url(#coat)" stroke="#E9D5FF" stroke-opacity=".28"/>
  <path d="m45 79 15 15 15-15 6 4-8 28H47l-8-28 6-4Z" fill="#F5F3FF" fill-opacity=".9"/>
  <rect x="39" y="27" width="42" height="50" rx="20" fill="#E7B18F"/>
  <path d="M37 50c0-22 11-33 27-33 13 0 24 10 22 31-7-1-13-6-18-14-7 8-17 14-31 16Z" fill="#17102E"/>
  <path d="M40 48c-3 10-1 23 7 30l-1-30h-6ZM81 45c4 10 3 25-6 34l2-35 4 1Z" fill="#17102E"/>
  <circle cx="51" cy="55" r="2" fill="#35203A"/><circle cx="69" cy="55" r="2" fill="#35203A"/>
  <path d="M53 66c5 3 10 3 14-1" stroke="#8A4250" stroke-width="2" stroke-linecap="round"/>
  <path d="m89 65 13 5-10 9-3-14Z" fill="#F0ABFC" fill-opacity=".78"/>
  <circle cx="94" cy="72" r="3" fill="#E879F9"/>
  <path d="M17 88c7-2 11-6 13-13 2 7 6 11 13 13-7 2-11 6-13 13-2-7-6-11-13-13Z" stroke="#C4B5FD" stroke-opacity=".5"/>
</svg>
